# xmcd CD database file
#
# Track frame offsets:
#	150
#	2000
#	22897
#	40912
#	59987
#	81075
#	99487
#	124580
#	146550
#	164050
#	181575
#	201150
#
# Disc length: 2942 seconds
#
# Revision: 1
# Processed by: cddbd v1.5PL3 Copyright (c) Steve Scherf et al.
# Submitted via: CDex 1.50Beta3
#
DISCID=9d0b7c0c
DTITLE=梶谷美由紀 - HEART&LIGHT
DYEAR=1996
DGENRE=Pop
TTITLE0=BE WITH YOU
TTITLE1=KISS THE SUNLIGHT (FULL BRIGHT MIX)
TTITLE2=ルージュになりたい
TTITLE3=ごめんね
TTITLE4=「さよなら」は言わない
TTITLE5=雨のタバコ・ロード
TTITLE6=いつでも そばに(AIR GLOBE MIX)
TTITLE7=どっち？
TTITLE8=STARS
TTITLE9=夢見るメロディー(ORIGINAL MIX)
TTITLE10=今宵、たまゆら・・・
TTITLE11=傷つくこともできない(N.Y.WINDY MIX)
EXTD=YEAR: 1996/12/02
EXTT0=
EXTT1=
EXTT2=
EXTT3=
EXTT4=
EXTT5=
EXTT6=
EXTT7=
EXTT8=
EXTT9=
EXTT10=
EXTT11=
PLAYORDER=
